<?xml version="1.0" encoding="UTF-8" standalone="no"?>
<!DOCTYPE svg PUBLIC "-//W3C//DTD SVG 1.1//EN" "http://www.w3.org/Graphics/SVG/1.1/DTD/svg11.dtd">
<!-- Created with Vectornator (http://vectornator.io/) -->
<svg height="100%" stroke-miterlimit="10" style="fill-rule:nonzero;clip-rule:evenodd;stroke-linecap:round;stroke-linejoin:round;" version="1.1" viewBox="0 0 1024 1024" width="100%" xml:space="preserve" xmlns="http://www.w3.org/2000/svg" xmlns:vectornator="http://vectornator.io" xmlns:xlink="http://www.w3.org/1999/xlink">
<defs/>
<g id="Layer-1" vectornator:layerName="Layer 1">
<path d="M83.378 180.712L83.378 254.816L235.083 254.816L386.787 254.816L386.787 452.102C386.787 564.937 386.507 654.701 386.088 661.692C385.109 680.288 382.942 693.081 378.258 707.133C366.933 741.669 341.905 763.97 306.95 770.681C277.658 776.274 248.925 773.058 226.554 761.523C197.401 746.563 178.805 716.781 174.96 678.82C174.541 674.555 174.051 669.801 173.841 668.124L173.492 665.187L92.7459 665.187L12 665.187L12.4195 674.066C14.5867 718.669 23.605 755.092 40.733 788.928C68.2076 843.038 114.208 881.419 176.009 901.832C232.426 920.498 307.579 922.526 370.358 907.076C468.791 882.817 531.291 814.445 548.279 712.447C552.124 689.376 552.613 681.616 552.963 638.692L553.312 599.332L565.547 584.372C572.258 576.122 577.991 569.411 578.2 569.411C578.48 569.411 631.542 645.053 696.068 737.544L813.517 905.678L912.999 905.678C992.417 905.678 1012.48 905.468 1011.99 904.839C1011.71 904.349 941.242 804.098 855.323 682.106C718.3 487.407 699.284 460.142 700.123 459.093C700.613 458.464 765.978 380.025 845.396 284.878C924.814 189.73 990.179 111.291 990.739 110.592C991.648 109.474 986.894 109.404 899.087 109.404L806.456 109.404L679.989 262.856L553.522 416.308L553.312 261.877L553.173 107.516L549.467 107.027C547.51 106.817 441.806 106.607 314.64 106.607L83.378 106.607L83.378 180.712Z" fill="#18216d" fill-rule="nonzero" opacity="1" stroke="none"/>
</g>
</svg>
