<?xml version="1.0" encoding="UTF-8" standalone="no"?>
<svg
   xmlns:dc="http://purl.org/dc/elements/1.1/"
   xmlns:cc="http://creativecommons.org/ns#"
   xmlns:rdf="http://www.w3.org/1999/02/22-rdf-syntax-ns#"
   xmlns:svg="http://www.w3.org/2000/svg"
   xmlns="http://www.w3.org/2000/svg"
   width="512"
   height="512"
   viewBox="0 0 135.46666 135.46667"
   version="1.1"
   id="svg8">
  <defs
     id="defs2">
    <rect
       x="23.617775"
       y="52.661254"
       width="76.279029"
       height="62.555187"
       id="rect853" />
  </defs>
  <g
     id="layer1">
    <g
       id="g904"
       transform="translate(5.4949662,1.8512562)">
      <g
         id="g1586"
         transform="matrix(1.0695493,0,0,1.0695493,-9.4547952,-4.5897351)">
        <g
           id="g2279">
          <g
             id="g2321">
            <g
               id="g2405">
              <path
                 id="path2323"
                 style="font-style:normal;font-variant:normal;font-weight:600;font-stretch:normal;font-size:136.878px;line-height:1.25;font-family:'SF Pro Display';-inkscape-font-specification:'SF Pro Display, Semi-Bold';font-variant-ligatures:normal;font-variant-caps:normal;font-variant-numeric:normal;font-variant-east-asian:normal;fill:#000000;fill-opacity:1;stroke:none;stroke-width:1.06955"
                 d="M 46.011719 57.587891 L 46.011719 129.95508 L 194.47852 129.95508 L 194.47852 323.64844 C 194.47852 363.0937 176.10495 383.89844 141.79297 383.89844 C 109.64237 383.89844 91.811804 362.82384 90.460938 332.56445 L 90.191406 330.94336 L 11.029297 330.94336 L 11.300781 333.375 C 13.191993 406.59191 62.091944 454.41406 142.60352 454.41406 C 227.16769 454.41406 276.07031 406.5916 276.07031 324.45898 L 276.07031 299.54102 L 289.70117 282.82617 L 404.79492 447.63086 L 502.32812 447.63086 L 348.86914 229.60156 L 492.33203 57.771484 L 401.55273 57.771484 L 276.07031 210.01172 L 276.07031 57.798828 L 273.90625 57.798828 L 273.90625 57.587891 L 46.011719 57.587891 z "
                 transform="matrix(0.24737834,0,0,0.24737834,3.7023342,2.5604046)" />
            </g>
          </g>
        </g>
      </g>
    </g>
  </g>
</svg>
